<?xml version="1.0" encoding="UTF-8" standalone="no"?>
<!DOCTYPE svg PUBLIC "-//W3C//DTD SVG 1.1//EN"
 "http://www.w3.org/Graphics/SVG/1.1/DTD/svg11.dtd">
<!-- Generated by graphviz version 2.44.1 (20200629.0846)
 -->
<!-- Pages: 1 -->
<svg width="147pt" height="260pt"
 viewBox="0.00 0.00 146.89 260.00" xmlns="http://www.w3.org/2000/svg" xmlns:xlink="http://www.w3.org/1999/xlink">
<g id="graph0" class="graph" transform="scale(1 1) rotate(0) translate(4 256)">
<polygon fill="white" stroke="transparent" points="-4,4 -4,-256 142.89,-256 142.89,4 -4,4"/>
<!-- a -->
<g id="node1" class="node">
<title>a</title>
<ellipse fill="none" stroke="black" cx="75.89" cy="-234" rx="27" ry="18"/>
<text text-anchor="middle" x="75.89" y="-230.3" font-family="Times,serif" font-size="14.00">a</text>
</g>
<!-- b -->
<g id="node2" class="node">
<title>b</title>
<ellipse fill="none" stroke="black" cx="39.89" cy="-162" rx="27" ry="18"/>
<text text-anchor="middle" x="39.89" y="-158.3" font-family="Times,serif" font-size="14.00">b</text>
</g>
<!-- a&#45;&gt;b -->
<g id="edge1" class="edge">
<title>a&#45;&gt;b</title>
<path fill="none" stroke="black" d="M67.54,-216.76C63.18,-208.28 57.75,-197.71 52.85,-188.2"/>
<polygon fill="black" stroke="black" points="55.88,-186.44 48.2,-179.15 49.66,-189.64 55.88,-186.44"/>
</g>
<!-- e -->
<g id="node6" class="node">
<title>e</title>
<ellipse fill="none" stroke="black" cx="111.89" cy="-162" rx="27" ry="18"/>
<text text-anchor="middle" x="111.89" y="-158.3" font-family="Times,serif" font-size="14.00">e</text>
</g>
<!-- a&#45;&gt;e -->
<g id="edge6" class="edge">
<title>a&#45;&gt;e</title>
<path fill="none" stroke="black" d="M84.24,-216.76C88.6,-208.28 94.04,-197.71 98.93,-188.2"/>
<polygon fill="black" stroke="black" points="102.13,-189.64 103.59,-179.15 95.9,-186.44 102.13,-189.64"/>
</g>
<!-- c -->
<g id="node3" class="node">
<title>c</title>
<ellipse fill="none" stroke="black" cx="111.89" cy="-90" rx="27" ry="18"/>
<text text-anchor="middle" x="111.89" y="-86.3" font-family="Times,serif" font-size="14.00">c</text>
</g>
<!-- b&#45;&gt;c -->
<g id="edge2" class="edge">
<title>b&#45;&gt;c</title>
<path fill="none" stroke="black" d="M54.46,-146.83C64.64,-136.94 78.42,-123.55 89.92,-112.36"/>
<polygon fill="black" stroke="black" points="92.37,-114.87 97.1,-105.38 87.49,-109.85 92.37,-114.87"/>
</g>
<!-- d -->
<g id="node4" class="node">
<title>d</title>
<ellipse fill="none" stroke="black" cx="39.89" cy="-90" rx="27" ry="18"/>
<text text-anchor="middle" x="39.89" y="-86.3" font-family="Times,serif" font-size="14.00">d</text>
</g>
<!-- b&#45;&gt;d -->
<g id="edge3" class="edge">
<title>b&#45;&gt;d</title>
<path fill="none" stroke="black" d="M39.89,-143.7C39.89,-135.98 39.89,-126.71 39.89,-118.11"/>
<polygon fill="black" stroke="black" points="43.39,-118.1 39.89,-108.1 36.39,-118.1 43.39,-118.1"/>
</g>
<!-- f -->
<g id="node5" class="node">
<title>f</title>
<ellipse fill="none" stroke="black" cx="47.89" cy="-18" rx="27" ry="18"/>
<text text-anchor="middle" x="47.89" y="-14.3" font-family="Times,serif" font-size="14.00">f</text>
</g>
<!-- b&#45;&gt;f -->
<g id="edge5" class="edge">
<title>b&#45;&gt;f</title>
<path fill="none" stroke="black" d="M26.14,-146.07C17.93,-136.1 8.27,-122.25 3.89,-108 -0.81,-92.71 -1.54,-87.05 3.89,-72 8.16,-60.17 16.35,-49.11 24.52,-40.19"/>
<polygon fill="black" stroke="black" points="27.12,-42.54 31.59,-32.93 22.11,-37.65 27.12,-42.54"/>
</g>
<!-- c&#45;&gt;f -->
<g id="edge4" class="edge">
<title>c&#45;&gt;f</title>
<path fill="none" stroke="black" d="M98.32,-74.15C89.58,-64.6 78.06,-51.99 68.23,-41.25"/>
<polygon fill="black" stroke="black" points="70.78,-38.84 61.45,-33.82 65.61,-43.57 70.78,-38.84"/>
</g>
<!-- e&#45;&gt;c -->
<g id="edge7" class="edge">
<title>e&#45;&gt;c</title>
<path fill="none" stroke="black" d="M111.89,-143.7C111.89,-135.98 111.89,-126.71 111.89,-118.11"/>
<polygon fill="black" stroke="black" points="115.39,-118.1 111.89,-108.1 108.39,-118.1 115.39,-118.1"/>
</g>
<!-- e&#45;&gt;d -->
<g id="edge8" class="edge">
<title>e&#45;&gt;d</title>
<path fill="none" stroke="black" d="M97.32,-146.83C87.14,-136.94 73.37,-123.55 61.86,-112.36"/>
<polygon fill="black" stroke="black" points="64.3,-109.85 54.69,-105.38 59.42,-114.87 64.3,-109.85"/>
</g>
</g>
</svg>
