<?xml version="1.0" encoding="UTF-8" standalone="no"?>
<!DOCTYPE svg PUBLIC "-//W3C//DTD SVG 1.1//EN"
 "http://www.w3.org/Graphics/SVG/1.1/DTD/svg11.dtd">
<!-- Generated by graphviz version 2.44.1 (20200629.0846)
 -->
<!-- Pages: 1 -->
<svg width="189pt" height="260pt"
 viewBox="0.00 0.00 189.00 260.00" xmlns="http://www.w3.org/2000/svg" xmlns:xlink="http://www.w3.org/1999/xlink">
<g id="graph0" class="graph" transform="scale(1 1) rotate(0) translate(4 256)">
<polygon fill="white" stroke="transparent" points="-4,4 -4,-256 185,-256 185,4 -4,4"/>
<!-- a -->
<g id="node1" class="node">
<title>a</title>
<ellipse fill="none" stroke="black" cx="118" cy="-234" rx="27" ry="18"/>
<text text-anchor="middle" x="118" y="-230.3" font-family="Times,serif" font-size="14.00">a</text>
</g>
<!-- b -->
<g id="node2" class="node">
<title>b</title>
<ellipse fill="none" stroke="black" cx="118" cy="-162" rx="27" ry="18"/>
<text text-anchor="middle" x="118" y="-158.3" font-family="Times,serif" font-size="14.00">b</text>
</g>
<!-- a&#45;&gt;b -->
<g id="edge1" class="edge">
<title>a&#45;&gt;b</title>
<path fill="none" stroke="black" d="M118,-215.7C118,-207.98 118,-198.71 118,-190.11"/>
<polygon fill="black" stroke="black" points="121.5,-190.1 118,-180.1 114.5,-190.1 121.5,-190.1"/>
</g>
<!-- f -->
<g id="node5" class="node">
<title>f</title>
<ellipse fill="none" stroke="black" cx="154" cy="-18" rx="27" ry="18"/>
<text text-anchor="middle" x="154" y="-14.3" font-family="Times,serif" font-size="14.00">f</text>
</g>
<!-- a&#45;&gt;f -->
<g id="edge7" class="edge">
<title>a&#45;&gt;f</title>
<path fill="none" stroke="black" d="M131.75,-218.07C139.96,-208.1 149.62,-194.25 154,-180 167.95,-134.63 163.39,-78.62 158.74,-46.04"/>
<polygon fill="black" stroke="black" points="162.17,-45.29 157.19,-35.94 155.25,-46.35 162.17,-45.29"/>
</g>
<!-- e -->
<g id="node6" class="node">
<title>e</title>
<ellipse fill="none" stroke="black" cx="46" cy="-162" rx="27" ry="18"/>
<text text-anchor="middle" x="46" y="-158.3" font-family="Times,serif" font-size="14.00">e</text>
</g>
<!-- a&#45;&gt;e -->
<g id="edge6" class="edge">
<title>a&#45;&gt;e</title>
<path fill="none" stroke="black" d="M103.43,-218.83C93.25,-208.94 79.48,-195.55 67.97,-184.36"/>
<polygon fill="black" stroke="black" points="70.41,-181.85 60.8,-177.38 65.53,-186.87 70.41,-181.85"/>
</g>
<!-- c -->
<g id="node3" class="node">
<title>c</title>
<ellipse fill="none" stroke="black" cx="27" cy="-90" rx="27" ry="18"/>
<text text-anchor="middle" x="27" y="-86.3" font-family="Times,serif" font-size="14.00">c</text>
</g>
<!-- b&#45;&gt;c -->
<g id="edge2" class="edge">
<title>b&#45;&gt;c</title>
<path fill="none" stroke="black" d="M100.88,-147.83C87.16,-137.27 67.69,-122.3 52.18,-110.37"/>
<polygon fill="black" stroke="black" points="54.1,-107.43 44.04,-104.11 49.83,-112.98 54.1,-107.43"/>
</g>
<!-- d -->
<g id="node4" class="node">
<title>d</title>
<ellipse fill="none" stroke="black" cx="99" cy="-90" rx="27" ry="18"/>
<text text-anchor="middle" x="99" y="-86.3" font-family="Times,serif" font-size="14.00">d</text>
</g>
<!-- b&#45;&gt;d -->
<g id="edge3" class="edge">
<title>b&#45;&gt;d</title>
<path fill="none" stroke="black" d="M113.4,-144.05C111.25,-136.14 108.65,-126.54 106.24,-117.69"/>
<polygon fill="black" stroke="black" points="109.55,-116.52 103.56,-107.79 102.8,-118.36 109.55,-116.52"/>
</g>
<!-- b&#45;&gt;f -->
<g id="edge5" class="edge">
<title>b&#45;&gt;f</title>
<path fill="none" stroke="black" d="M123.79,-144.42C127.3,-134.03 131.72,-120.33 135,-108 140.46,-87.52 145.41,-64.06 148.89,-46.37"/>
<polygon fill="black" stroke="black" points="152.4,-46.66 150.86,-36.18 145.53,-45.34 152.4,-46.66"/>
</g>
<!-- c&#45;&gt;f -->
<g id="edge4" class="edge">
<title>c&#45;&gt;f</title>
<path fill="none" stroke="black" d="M47.12,-77.91C67.99,-66.41 100.84,-48.3 124.61,-35.2"/>
<polygon fill="black" stroke="black" points="126.48,-38.16 133.55,-30.27 123.1,-32.03 126.48,-38.16"/>
</g>
<!-- e&#45;&gt;c -->
<g id="edge8" class="edge">
<title>e&#45;&gt;c</title>
<path fill="none" stroke="black" d="M41.4,-144.05C39.25,-136.14 36.65,-126.54 34.24,-117.69"/>
<polygon fill="black" stroke="black" points="37.55,-116.52 31.56,-107.79 30.8,-118.36 37.55,-116.52"/>
</g>
<!-- e&#45;&gt;d -->
<g id="edge9" class="edge">
<title>e&#45;&gt;d</title>
<path fill="none" stroke="black" d="M57.76,-145.46C64.62,-136.4 73.42,-124.79 81.12,-114.61"/>
<polygon fill="black" stroke="black" points="84.02,-116.58 87.27,-106.49 78.44,-112.35 84.02,-116.58"/>
</g>
</g>
</svg>
