<?xml version="1.0" encoding="UTF-8" standalone="no"?>
<!DOCTYPE svg PUBLIC "-//W3C//DTD SVG 1.1//EN"
 "http://www.w3.org/Graphics/SVG/1.1/DTD/svg11.dtd">
<!-- Generated by graphviz version 2.44.1 (20200629.0846)
 -->
<!-- Title: dl Pages: 1 -->
<svg width="388pt" height="250pt"
 viewBox="0.00 0.00 388.00 250.00" xmlns="http://www.w3.org/2000/svg" xmlns:xlink="http://www.w3.org/1999/xlink">
<g id="graph0" class="graph" transform="scale(1 1) rotate(0) translate(4 246)">
<title>dl</title>
<polygon fill="transparent" stroke="transparent" points="-4,4 -4,-246 384,-246 384,4 -4,4"/>
<g id="clust1" class="cluster">
<title>cluster_0</title>
<polygon fill="#cd5c5c" stroke="black" stroke-dasharray="5,2" points="8,-47 8,-169 78,-169 78,-47 8,-47"/>
</g>
<g id="clust2" class="cluster">
<title>cluster_3</title>
<polygon fill="#2e8b57" stroke="black" stroke-dasharray="5,2" points="155,-8 155,-234 372,-234 372,-8 155,-8"/>
</g>
<!-- node0 -->
<g id="node1" class="node">
<title>node0</title>
<polygon fill="none" stroke="black" points="16,-56 16,-160 70,-160 70,-56 16,-56"/>
<text text-anchor="middle" x="43" y="-143.2" font-family="Times,serif" font-size="16.00">2</text>
<polyline fill="none" stroke="black" points="16,-134 70,-134 "/>
<text text-anchor="middle" x="43" y="-117.2" font-family="Times,serif" font-size="16.00">3</text>
<polyline fill="none" stroke="black" points="16,-108 70,-108 "/>
<text text-anchor="middle" x="43" y="-91.2" font-family="Times,serif" font-size="16.00">5</text>
<polyline fill="none" stroke="black" points="16,-82 70,-82 "/>
<polyline fill="none" stroke="black" points="16,-82 70,-82 "/>
<text text-anchor="middle" x="43" y="-65.2" font-family="Times,serif" font-size="16.00">e</text>
</g>
<!-- node1 -->
<g id="node2" class="node">
<title>node1</title>
<polygon fill="none" stroke="black" points="163,-17 163,-225 217,-225 217,-17 163,-17"/>
<text text-anchor="middle" x="190" y="-208.2" font-family="Times,serif" font-size="16.00">2</text>
<polyline fill="none" stroke="black" points="163,-199 217,-199 "/>
<text text-anchor="middle" x="190" y="-182.2" font-family="Times,serif" font-size="16.00">3</text>
<polyline fill="none" stroke="black" points="163,-173 217,-173 "/>
<text text-anchor="middle" x="190" y="-156.2" font-family="Times,serif" font-size="16.00">5</text>
<polyline fill="none" stroke="black" points="163,-147 217,-147 "/>
<text text-anchor="middle" x="190" y="-130.2" font-family="Times,serif" font-size="16.00">7</text>
<polyline fill="none" stroke="black" points="163,-121 217,-121 "/>
<text text-anchor="middle" x="190" y="-104.2" font-family="Times,serif" font-size="16.00">11</text>
<polyline fill="none" stroke="black" points="163,-95 217,-95 "/>
<text text-anchor="middle" x="190" y="-78.2" font-family="Times,serif" font-size="16.00"> </text>
<polyline fill="none" stroke="black" points="163,-69 217,-69 "/>
<text text-anchor="middle" x="190" y="-52.2" font-family="Times,serif" font-size="16.00"> </text>
<polyline fill="none" stroke="black" points="163,-43 217,-43 "/>
<text text-anchor="middle" x="190" y="-26.2" font-family="Times,serif" font-size="16.00"> </text>
</g>
<!-- node0&#45;&gt;node1 -->
<g id="2" class="edge">
<title>node0:f1&#45;&gt;node1:f1</title>
<path fill="none" stroke="black" d="M70.41,-108C91.99,-108 123.12,-108 151.93,-108"/>
<polygon fill="black" stroke="black" points="152,-111.5 162,-108 152,-104.5 152,-111.5"/>
<text text-anchor="middle" x="116.5" y="-111.8" font-family="Times,serif" font-size="14.00">append 11</text>
</g>
<!-- node3 -->
<g id="node3" class="node">
<title>node3</title>
<polygon fill="none" stroke="black" points="310,-17 310,-225 364,-225 364,-17 310,-17"/>
<text text-anchor="middle" x="337" y="-208.2" font-family="Times,serif" font-size="16.00">2</text>
<polyline fill="none" stroke="black" points="310,-199 364,-199 "/>
<text text-anchor="middle" x="337" y="-182.2" font-family="Times,serif" font-size="16.00">3</text>
<polyline fill="none" stroke="black" points="310,-173 364,-173 "/>
<text text-anchor="middle" x="337" y="-156.2" font-family="Times,serif" font-size="16.00">5</text>
<polyline fill="none" stroke="black" points="310,-147 364,-147 "/>
<text text-anchor="middle" x="337" y="-130.2" font-family="Times,serif" font-size="16.00">7</text>
<polyline fill="none" stroke="black" points="310,-121 364,-121 "/>
<text text-anchor="middle" x="337" y="-104.2" font-family="Times,serif" font-size="16.00">11</text>
<polyline fill="none" stroke="black" points="310,-95 364,-95 "/>
<text text-anchor="middle" x="337" y="-78.2" font-family="Times,serif" font-size="16.00">13</text>
<polyline fill="none" stroke="black" points="310,-69 364,-69 "/>
<text text-anchor="middle" x="337" y="-52.2" font-family="Times,serif" font-size="16.00"> </text>
<polyline fill="none" stroke="black" points="310,-43 364,-43 "/>
<text text-anchor="middle" x="337" y="-26.2" font-family="Times,serif" font-size="16.00"> </text>
</g>
<!-- node1&#45;&gt;node3 -->
<g id="2" class="edge">
<title>node1:f0&#45;&gt;node3:f2</title>
<path fill="none" stroke="black" d="M217,-212C284.29,-212 243.8,-95.35 299.73,-83.05"/>
<polygon fill="black" stroke="black" points="300.41,-86.5 310,-82 299.7,-79.53 300.41,-86.5"/>
<text text-anchor="middle" x="263.5" y="-209.8" font-family="Times,serif" font-size="14.00">append 13</text>
</g>
</g>
</svg>
