<?xml version="1.0" encoding="UTF-8" standalone="no"?>
<!DOCTYPE svg PUBLIC "-//W3C//DTD SVG 1.1//EN"
 "http://www.w3.org/Graphics/SVG/1.1/DTD/svg11.dtd">
<!-- Generated by graphviz version 2.44.1 (20200629.0846)
 -->
<!-- Title: ll Pages: 1 -->
<svg width="197pt" height="535pt"
 viewBox="0.00 0.00 197.00 535.00" xmlns="http://www.w3.org/2000/svg" xmlns:xlink="http://www.w3.org/1999/xlink">
<g id="graph0" class="graph" transform="scale(1 1) rotate(0) translate(4 531)">
<title>ll</title>
<polygon fill="transparent" stroke="transparent" points="-4,4 -4,-531 193,-531 193,4 -4,4"/>
<g id="clust1" class="cluster">
<title>cluster_1</title>
<polygon fill="lightgray" stroke="black" stroke-dasharray="5,2" points="8,-8 8,-519 181,-519 181,-8 8,-8"/>
</g>
<g id="clust2" class="cluster">
<title>cluster_2</title>
<polygon fill="#2e8b57" stroke="black" stroke-dasharray="5,2" points="87,-230 87,-283 173,-283 173,-230 87,-230"/>
</g>
<!-- node_init -->
<g id="node1" class="node">
<title>node_init</title>
<polygon fill="none" stroke="black" points="22,-474.5 22,-510.5 94,-510.5 94,-474.5 22,-474.5"/>
<text text-anchor="middle" x="36" y="-488.7" font-family="Times,serif" font-size="16.00">A</text>
<polyline fill="none" stroke="black" points="50,-474.5 50,-510.5 "/>
<text text-anchor="middle" x="72" y="-488.7" font-family="Times,serif" font-size="16.00">next</text>
<polyline fill="none" stroke="black" points="94,-474.5 94,-510.5 "/>
</g>
<!-- node0 -->
<g id="node2" class="node">
<title>node0</title>
<polygon fill="none" stroke="black" points="44.5,-400.5 44.5,-436.5 115.5,-436.5 115.5,-400.5 44.5,-400.5"/>
<text text-anchor="middle" x="58" y="-414.7" font-family="Times,serif" font-size="16.00">B</text>
<polyline fill="none" stroke="black" points="71.5,-400.5 71.5,-436.5 "/>
<text text-anchor="middle" x="93.5" y="-414.7" font-family="Times,serif" font-size="16.00">next</text>
<polyline fill="none" stroke="black" points="115.5,-400.5 115.5,-436.5 "/>
</g>
<!-- node_init&#45;&gt;node0 -->
<g id="0" class="edge">
<title>node_init:f1&#45;&gt;node0:f0</title>
<path fill="none" stroke="black" d="M58,-474C58,-466.07 58,-456.49 58,-447.07"/>
<polygon fill="black" stroke="black" points="61.5,-447 58,-437 54.5,-447 61.5,-447"/>
</g>
<!-- node1 -->
<g id="node3" class="node">
<title>node1</title>
<polygon fill="none" stroke="black" points="66.5,-326.5 66.5,-362.5 137.5,-362.5 137.5,-326.5 66.5,-326.5"/>
<text text-anchor="middle" x="80" y="-340.7" font-family="Times,serif" font-size="16.00">C</text>
<polyline fill="none" stroke="black" points="93.5,-326.5 93.5,-362.5 "/>
<text text-anchor="middle" x="115.5" y="-340.7" font-family="Times,serif" font-size="16.00">next</text>
<polyline fill="none" stroke="black" points="137.5,-326.5 137.5,-362.5 "/>
</g>
<!-- node0&#45;&gt;node1 -->
<g id="1" class="edge">
<title>node0:f1&#45;&gt;node1:f0</title>
<path fill="none" stroke="black" d="M80,-400C80,-392.07 80,-382.49 80,-373.07"/>
<polygon fill="black" stroke="black" points="83.5,-373 80,-363 76.5,-373 83.5,-373"/>
</g>
<!-- node2 -->
<g id="node4" class="node">
<title>node2</title>
<polygon fill="none" stroke="black" points="45,-164.5 45,-200.5 117,-200.5 117,-164.5 45,-164.5"/>
<text text-anchor="middle" x="59" y="-178.7" font-family="Times,serif" font-size="16.00">D</text>
<polyline fill="none" stroke="black" points="73,-164.5 73,-200.5 "/>
<text text-anchor="middle" x="95" y="-178.7" font-family="Times,serif" font-size="16.00">next</text>
<polyline fill="none" stroke="black" points="117,-164.5 117,-200.5 "/>
</g>
<!-- node1&#45;&gt;node2 -->
<g id="2" class="edge">
<title>node1:f1&#45;&gt;node2:f0</title>
<path fill="none" stroke="black" d="M94.25,-326.34C94.17,-326.22 94.09,-326.11 94,-326 75.35,-301.64 53.32,-310.64 40,-283 29.77,-261.78 33.26,-252.57 40,-230 43.17,-219.39 51.6,-217.01 56.09,-210.79"/>
<polygon fill="black" stroke="black" points="59.5,-211.58 59,-201 52.79,-209.59 59.5,-211.58"/>
<text text-anchor="middle" x="61.5" y="-252.8" font-family="Times,serif" font-size="14.00">old link</text>
</g>
<!-- node5 -->
<g id="node7" class="node">
<title>node5</title>
<polygon fill="none" stroke="black" points="95,-238.5 95,-274.5 165,-274.5 165,-238.5 95,-238.5"/>
<text text-anchor="middle" x="108" y="-252.7" font-family="Times,serif" font-size="16.00">F</text>
<polyline fill="none" stroke="black" points="121,-238.5 121,-274.5 "/>
<text text-anchor="middle" x="143" y="-252.7" font-family="Times,serif" font-size="16.00">next</text>
<polyline fill="none" stroke="black" points="165,-238.5 165,-274.5 "/>
</g>
<!-- node1&#45;&gt;node5 -->
<g id="4" class="edge">
<title>node1:f1&#45;&gt;node5:f0</title>
<path fill="none" stroke="black" stroke-dasharray="5,2" d="M104.44,-326.38C105.78,-315.2 107.27,-300.28 107.8,-285.85"/>
<polygon fill="black" stroke="black" points="111.3,-285.57 108,-275.5 104.31,-285.43 111.3,-285.57"/>
<text text-anchor="middle" x="133" y="-296.8" font-family="Times,serif" font-size="14.00"> new link</text>
</g>
<!-- node3 -->
<g id="node5" class="node">
<title>node3</title>
<polygon fill="none" stroke="black" points="68,-90.5 68,-126.5 138,-126.5 138,-90.5 68,-90.5"/>
<text text-anchor="middle" x="81" y="-104.7" font-family="Times,serif" font-size="16.00">E</text>
<polyline fill="none" stroke="black" points="94,-90.5 94,-126.5 "/>
<text text-anchor="middle" x="116" y="-104.7" font-family="Times,serif" font-size="16.00">next</text>
<polyline fill="none" stroke="black" points="138,-90.5 138,-126.5 "/>
</g>
<!-- node2&#45;&gt;node3 -->
<g id="3" class="edge">
<title>node2:f1&#45;&gt;node3:f0</title>
<path fill="none" stroke="black" d="M81,-164C81,-156.07 81,-146.49 81,-137.07"/>
<polygon fill="black" stroke="black" points="84.5,-137 81,-127 77.5,-137 84.5,-137"/>
</g>
<!-- node4 -->
<g id="node6" class="node">
<title>node4</title>
<polygon fill="none" stroke="black" points="76,-16.5 76,-52.5 130,-52.5 130,-16.5 76,-16.5"/>
<text text-anchor="middle" x="103" y="-30.7" font-family="Times,serif" font-size="16.00">None</text>
</g>
<!-- node3&#45;&gt;node4 -->
<g id="6" class="edge">
<title>node3:f1&#45;&gt;node4:f1</title>
<path fill="none" stroke="black" stroke-dasharray="5,2" d="M103,-90.21C103,-81.96 103,-72.04 103,-62.86"/>
<polygon fill="black" stroke="black" points="106.5,-62.58 103,-52.58 99.5,-62.58 106.5,-62.58"/>
</g>
<!-- node5&#45;&gt;node2 -->
<g id="5" class="edge">
<title>node5:f1&#45;&gt;node2:f0</title>
<path fill="none" stroke="black" stroke-dasharray="5,2" d="M121.29,-238.32C121.19,-238.21 121.1,-238.11 121,-238 102.18,-217.5 69.38,-228.86 60.99,-211.31"/>
<polygon fill="black" stroke="black" points="64.33,-210.15 59,-201 57.46,-211.48 64.33,-210.15"/>
</g>
</g>
</svg>
