<?xml version="1.0" encoding="UTF-8" standalone="no"?>
<!DOCTYPE svg PUBLIC "-//W3C//DTD SVG 1.1//EN"
 "http://www.w3.org/Graphics/SVG/1.1/DTD/svg11.dtd">
<!-- Generated by graphviz version 2.44.1 (20200629.0846)
 -->
<!-- Pages: 1 -->
<svg width="458pt" height="260pt"
 viewBox="0.00 0.00 458.00 260.00" xmlns="http://www.w3.org/2000/svg" xmlns:xlink="http://www.w3.org/1999/xlink">
<g id="graph0" class="graph" transform="scale(1 1) rotate(0) translate(4 256)">
<polygon fill="white" stroke="transparent" points="-4,4 -4,-256 454,-256 454,4 -4,4"/>
<!-- a1 -->
<g id="node1" class="node">
<title>a1</title>
<ellipse fill="none" stroke="black" cx="135" cy="-234" rx="27" ry="18"/>
<text text-anchor="middle" x="135" y="-230.3" font-family="Times,serif" font-size="14.00">+</text>
</g>
<!-- pow1 -->
<g id="node2" class="node">
<title>pow1</title>
<ellipse fill="none" stroke="black" cx="99" cy="-162" rx="27" ry="18"/>
<text text-anchor="middle" x="99" y="-158.3" font-family="Times,serif" font-size="14.00">^</text>
</g>
<!-- a1&#45;&gt;pow1 -->
<g id="edge1" class="edge">
<title>a1&#45;&gt;pow1</title>
<path fill="none" stroke="black" d="M126.65,-216.76C122.29,-208.28 116.85,-197.71 111.96,-188.2"/>
<polygon fill="black" stroke="black" points="114.99,-186.44 107.3,-179.15 108.77,-189.64 114.99,-186.44"/>
</g>
<!-- m1 -->
<g id="node5" class="node">
<title>m1</title>
<ellipse fill="none" stroke="black" cx="171" cy="-162" rx="27" ry="18"/>
<text text-anchor="middle" x="171" y="-158.3" font-family="Times,serif" font-size="14.00">⨉</text>
</g>
<!-- a1&#45;&gt;m1 -->
<g id="edge4" class="edge">
<title>a1&#45;&gt;m1</title>
<path fill="none" stroke="black" d="M143.35,-216.76C147.71,-208.28 153.15,-197.71 158.04,-188.2"/>
<polygon fill="black" stroke="black" points="161.23,-189.64 162.7,-179.15 155.01,-186.44 161.23,-189.64"/>
</g>
<!-- x1 -->
<g id="node3" class="node">
<title>x1</title>
<ellipse fill="none" stroke="black" cx="27" cy="-90" rx="27" ry="18"/>
<text text-anchor="middle" x="27" y="-86.3" font-family="Times,serif" font-size="14.00">x</text>
</g>
<!-- pow1&#45;&gt;x1 -->
<g id="edge2" class="edge">
<title>pow1&#45;&gt;x1</title>
<path fill="none" stroke="black" d="M84.43,-146.83C74.25,-136.94 60.48,-123.55 48.97,-112.36"/>
<polygon fill="black" stroke="black" points="51.41,-109.85 41.8,-105.38 46.53,-114.87 51.41,-109.85"/>
</g>
<!-- n1 -->
<g id="node4" class="node">
<title>n1</title>
<ellipse fill="none" stroke="black" cx="99" cy="-90" rx="27" ry="18"/>
<text text-anchor="middle" x="99" y="-86.3" font-family="Times,serif" font-size="14.00">2</text>
</g>
<!-- pow1&#45;&gt;n1 -->
<g id="edge3" class="edge">
<title>pow1&#45;&gt;n1</title>
<path fill="none" stroke="black" d="M99,-143.7C99,-135.98 99,-126.71 99,-118.11"/>
<polygon fill="black" stroke="black" points="102.5,-118.1 99,-108.1 95.5,-118.1 102.5,-118.1"/>
</g>
<!-- n0 -->
<g id="node6" class="node">
<title>n0</title>
<ellipse fill="none" stroke="black" cx="171" cy="-90" rx="27" ry="18"/>
<text text-anchor="middle" x="171" y="-86.3" font-family="Times,serif" font-size="14.00">3</text>
</g>
<!-- m1&#45;&gt;n0 -->
<g id="edge5" class="edge">
<title>m1&#45;&gt;n0</title>
<path fill="none" stroke="black" d="M171,-143.7C171,-135.98 171,-126.71 171,-118.11"/>
<polygon fill="black" stroke="black" points="174.5,-118.1 171,-108.1 167.5,-118.1 174.5,-118.1"/>
</g>
<!-- pow2 -->
<g id="node7" class="node">
<title>pow2</title>
<ellipse fill="none" stroke="black" cx="243" cy="-90" rx="27" ry="18"/>
<text text-anchor="middle" x="243" y="-86.3" font-family="Times,serif" font-size="14.00">^</text>
</g>
<!-- m1&#45;&gt;pow2 -->
<g id="edge6" class="edge">
<title>m1&#45;&gt;pow2</title>
<path fill="none" stroke="black" d="M185.57,-146.83C195.75,-136.94 209.52,-123.55 221.03,-112.36"/>
<polygon fill="black" stroke="black" points="223.47,-114.87 228.2,-105.38 218.59,-109.85 223.47,-114.87"/>
</g>
<!-- x2 -->
<g id="node8" class="node">
<title>x2</title>
<ellipse fill="none" stroke="black" cx="207" cy="-18" rx="27" ry="18"/>
<text text-anchor="middle" x="207" y="-14.3" font-family="Times,serif" font-size="14.00">x</text>
</g>
<!-- pow2&#45;&gt;x2 -->
<g id="edge7" class="edge">
<title>pow2&#45;&gt;x2</title>
<path fill="none" stroke="black" d="M234.65,-72.76C230.29,-64.28 224.85,-53.71 219.96,-44.2"/>
<polygon fill="black" stroke="black" points="222.99,-42.44 215.3,-35.15 216.77,-45.64 222.99,-42.44"/>
</g>
<!-- n2 -->
<g id="node9" class="node">
<title>n2</title>
<ellipse fill="none" stroke="black" cx="279" cy="-18" rx="27" ry="18"/>
<text text-anchor="middle" x="279" y="-14.3" font-family="Times,serif" font-size="14.00">2</text>
</g>
<!-- pow2&#45;&gt;n2 -->
<g id="edge8" class="edge">
<title>pow2&#45;&gt;n2</title>
<path fill="none" stroke="black" d="M251.35,-72.76C255.71,-64.28 261.15,-53.71 266.04,-44.2"/>
<polygon fill="black" stroke="black" points="269.23,-45.64 270.7,-35.15 263.01,-42.44 269.23,-45.64"/>
</g>
<!-- a3 -->
<g id="node10" class="node">
<title>a3</title>
<ellipse fill="none" stroke="black" cx="395" cy="-234" rx="27" ry="18"/>
<text text-anchor="middle" x="395" y="-230.3" font-family="Times,serif" font-size="14.00">+</text>
</g>
<!-- pow3 -->
<g id="node11" class="node">
<title>pow3</title>
<ellipse fill="none" stroke="black" cx="423" cy="-90" rx="27" ry="18"/>
<text text-anchor="middle" x="423" y="-86.3" font-family="Times,serif" font-size="14.00">^</text>
</g>
<!-- a3&#45;&gt;pow3 -->
<g id="edge9" class="edge">
<title>a3&#45;&gt;pow3</title>
<path fill="none" stroke="black" d="M389.75,-216.2C384.91,-198 379.52,-168.32 387,-144 390.29,-133.31 396.54,-122.85 402.93,-114.08"/>
<polygon fill="black" stroke="black" points="405.88,-115.98 409.25,-105.93 400.35,-111.69 405.88,-115.98"/>
</g>
<!-- m3 -->
<g id="node14" class="node">
<title>m3</title>
<ellipse fill="none" stroke="black" cx="423" cy="-162" rx="27" ry="18"/>
<text text-anchor="middle" x="423" y="-158.3" font-family="Times,serif" font-size="14.00">⨉</text>
</g>
<!-- a3&#45;&gt;m3 -->
<g id="edge12" class="edge">
<title>a3&#45;&gt;m3</title>
<path fill="none" stroke="black" d="M401.64,-216.41C404.91,-208.22 408.94,-198.14 412.62,-188.95"/>
<polygon fill="black" stroke="black" points="415.95,-190.05 416.41,-179.47 409.45,-187.45 415.95,-190.05"/>
</g>
<!-- x3 -->
<g id="node12" class="node">
<title>x3</title>
<ellipse fill="none" stroke="black" cx="351" cy="-18" rx="27" ry="18"/>
<text text-anchor="middle" x="351" y="-14.3" font-family="Times,serif" font-size="14.00">x</text>
</g>
<!-- pow3&#45;&gt;x3 -->
<g id="edge10" class="edge">
<title>pow3&#45;&gt;x3</title>
<path fill="none" stroke="black" d="M408.43,-74.83C398.25,-64.94 384.48,-51.55 372.97,-40.36"/>
<polygon fill="black" stroke="black" points="375.41,-37.85 365.8,-33.38 370.53,-42.87 375.41,-37.85"/>
</g>
<!-- n3 -->
<g id="node13" class="node">
<title>n3</title>
<ellipse fill="none" stroke="black" cx="423" cy="-18" rx="27" ry="18"/>
<text text-anchor="middle" x="423" y="-14.3" font-family="Times,serif" font-size="14.00">2</text>
</g>
<!-- pow3&#45;&gt;n3 -->
<g id="edge11" class="edge">
<title>pow3&#45;&gt;n3</title>
<path fill="none" stroke="black" d="M423,-71.7C423,-63.98 423,-54.71 423,-46.11"/>
<polygon fill="black" stroke="black" points="426.5,-46.1 423,-36.1 419.5,-46.1 426.5,-46.1"/>
</g>
<!-- m3&#45;&gt;pow3 -->
<g id="edge14" class="edge">
<title>m3&#45;&gt;pow3</title>
<path fill="none" stroke="black" d="M423,-143.7C423,-135.98 423,-126.71 423,-118.11"/>
<polygon fill="black" stroke="black" points="426.5,-118.1 423,-108.1 419.5,-118.1 426.5,-118.1"/>
</g>
<!-- n4 -->
<g id="node15" class="node">
<title>n4</title>
<ellipse fill="none" stroke="black" cx="351" cy="-90" rx="27" ry="18"/>
<text text-anchor="middle" x="351" y="-86.3" font-family="Times,serif" font-size="14.00">3</text>
</g>
<!-- m3&#45;&gt;n4 -->
<g id="edge13" class="edge">
<title>m3&#45;&gt;n4</title>
<path fill="none" stroke="black" d="M408.43,-146.83C398.25,-136.94 384.48,-123.55 372.97,-112.36"/>
<polygon fill="black" stroke="black" points="375.41,-109.85 365.8,-105.38 370.53,-114.87 375.41,-109.85"/>
</g>
</g>
</svg>
