<?xml version="1.0" encoding="UTF-8" standalone="no"?>
<!DOCTYPE svg PUBLIC "-//W3C//DTD SVG 1.1//EN"
 "http://www.w3.org/Graphics/SVG/1.1/DTD/svg11.dtd">
<!-- Generated by graphviz version 2.44.1 (20200629.0846)
 -->
<!-- Pages: 1 -->
<svg width="189pt" height="260pt"
 viewBox="0.00 0.00 189.00 260.00" xmlns="http://www.w3.org/2000/svg" xmlns:xlink="http://www.w3.org/1999/xlink">
<g id="graph0" class="graph" transform="scale(1 1) rotate(0) translate(4 256)">
<polygon fill="white" stroke="transparent" points="-4,4 -4,-256 185,-256 185,4 -4,4"/>
<!-- a -->
<g id="node1" class="node">
<title>a</title>
<ellipse fill="none" stroke="black" cx="137" cy="-234" rx="27" ry="18"/>
<text text-anchor="middle" x="137" y="-230.3" font-family="Times,serif" font-size="14.00">a</text>
</g>
<!-- b -->
<g id="node2" class="node">
<title>b</title>
<ellipse fill="none" stroke="black" cx="137" cy="-162" rx="27" ry="18"/>
<text text-anchor="middle" x="137" y="-158.3" font-family="Times,serif" font-size="14.00">b</text>
</g>
<!-- a&#45;&gt;b -->
<g id="edge1" class="edge">
<title>a&#45;&gt;b</title>
<path fill="none" stroke="black" d="M137,-215.7C137,-207.98 137,-198.71 137,-190.11"/>
<polygon fill="black" stroke="black" points="140.5,-190.1 137,-180.1 133.5,-190.1 140.5,-190.1"/>
</g>
<!-- c -->
<g id="node3" class="node">
<title>c</title>
<ellipse fill="none" stroke="black" cx="99" cy="-90" rx="27" ry="18"/>
<text text-anchor="middle" x="99" y="-86.3" font-family="Times,serif" font-size="14.00">c</text>
</g>
<!-- b&#45;&gt;c -->
<g id="edge2" class="edge">
<title>b&#45;&gt;c</title>
<path fill="none" stroke="black" d="M128.19,-144.76C123.58,-136.28 117.84,-125.71 112.68,-116.2"/>
<polygon fill="black" stroke="black" points="115.61,-114.27 107.77,-107.15 109.46,-117.61 115.61,-114.27"/>
</g>
<!-- d -->
<g id="node4" class="node">
<title>d</title>
<ellipse fill="none" stroke="black" cx="27" cy="-90" rx="27" ry="18"/>
<text text-anchor="middle" x="27" y="-86.3" font-family="Times,serif" font-size="14.00">d</text>
</g>
<!-- b&#45;&gt;d -->
<g id="edge3" class="edge">
<title>b&#45;&gt;d</title>
<path fill="none" stroke="blue" d="M117.84,-148.81C100.33,-137.67 74.24,-121.06 54.51,-108.5"/>
<polygon fill="blue" stroke="blue" points="56.26,-105.47 45.94,-103.05 52.5,-111.37 56.26,-105.47"/>
</g>
<!-- f -->
<g id="node5" class="node">
<title>f</title>
<ellipse fill="none" stroke="black" cx="154" cy="-18" rx="27" ry="18"/>
<text text-anchor="middle" x="154" y="-14.3" font-family="Times,serif" font-size="14.00">f</text>
</g>
<!-- c&#45;&gt;f -->
<g id="edge4" class="edge">
<title>c&#45;&gt;f</title>
<path fill="none" stroke="black" d="M110.93,-73.81C118.21,-64.55 127.66,-52.52 135.85,-42.09"/>
<polygon fill="black" stroke="black" points="138.66,-44.18 142.09,-34.16 133.16,-39.86 138.66,-44.18"/>
</g>
<!-- d&#45;&gt;a -->
<g id="edge6" class="edge">
<title>d&#45;&gt;a</title>
<path fill="none" stroke="black" d="M22.52,-107.9C18.49,-127 15.1,-158.25 29,-180 44.91,-204.91 76.23,-218.47 101.06,-225.62"/>
<polygon fill="black" stroke="black" points="100.34,-229.05 110.9,-228.23 102.13,-222.29 100.34,-229.05"/>
</g>
<!-- f&#45;&gt;a -->
<g id="edge7" class="edge">
<title>f&#45;&gt;a</title>
<path fill="none" stroke="black" d="M160.44,-35.86C170.83,-65.63 188.64,-129.15 173,-180 169.71,-190.69 163.46,-201.15 157.07,-209.92"/>
<polygon fill="black" stroke="black" points="154.12,-208.02 150.75,-218.07 159.65,-212.31 154.12,-208.02"/>
</g>
<!-- f&#45;&gt;b -->
<g id="edge5" class="edge">
<title>f&#45;&gt;b</title>
<path fill="none" stroke="black" d="M151.94,-36.19C149.04,-60.42 143.72,-104.89 140.27,-133.68"/>
<polygon fill="black" stroke="black" points="136.76,-133.53 139.05,-143.87 143.71,-134.36 136.76,-133.53"/>
</g>
<!-- e -->
<g id="node6" class="node">
<title>e</title>
<ellipse fill="none" stroke="black" cx="65" cy="-162" rx="27" ry="18"/>
<text text-anchor="middle" x="65" y="-158.3" font-family="Times,serif" font-size="14.00">e</text>
</g>
<!-- e&#45;&gt;c -->
<g id="edge8" class="edge">
<title>e&#45;&gt;c</title>
<path fill="none" stroke="black" d="M72.89,-144.76C76.9,-136.49 81.89,-126.23 86.42,-116.9"/>
<polygon fill="black" stroke="black" points="89.7,-118.16 90.92,-107.63 83.4,-115.1 89.7,-118.16"/>
</g>
<!-- e&#45;&gt;d -->
<g id="edge9" class="edge">
<title>e&#45;&gt;d</title>
<path fill="none" stroke="black" d="M56.19,-144.76C51.58,-136.28 45.84,-125.71 40.68,-116.2"/>
<polygon fill="black" stroke="black" points="43.61,-114.27 35.77,-107.15 37.46,-117.61 43.61,-114.27"/>
</g>
</g>
</svg>
