<?xml version="1.0" encoding="UTF-8" standalone="no"?>
<!DOCTYPE svg PUBLIC "-//W3C//DTD SVG 1.1//EN"
 "http://www.w3.org/Graphics/SVG/1.1/DTD/svg11.dtd">
<!-- Generated by graphviz version 2.44.1 (20200629.0846)
 -->
<!-- Pages: 1 -->
<svg width="508pt" height="191pt"
 viewBox="0.00 0.00 508.00 191.00" xmlns="http://www.w3.org/2000/svg" xmlns:xlink="http://www.w3.org/1999/xlink">
<g id="graph0" class="graph" transform="scale(1 1) rotate(0) translate(4 187)">
<polygon fill="white" stroke="transparent" points="-4,4 -4,-187 504,-187 504,4 -4,4"/>
<!-- Expression -->
<g id="node1" class="node">
<title>Expression</title>
<polygon fill="none" stroke="black" points="144.5,-146.5 144.5,-182.5 221.5,-182.5 221.5,-146.5 144.5,-146.5"/>
<text text-anchor="middle" x="183" y="-160.8" font-family="Times,serif" font-size="14.00">Expression</text>
</g>
<!-- Terminal -->
<g id="node2" class="node">
<title>Terminal</title>
<polygon fill="none" stroke="black" points="76.5,-73.5 76.5,-109.5 143.5,-109.5 143.5,-73.5 76.5,-73.5"/>
<text text-anchor="middle" x="110" y="-87.8" font-family="Times,serif" font-size="14.00">Terminal</text>
</g>
<!-- Expression&#45;&gt;Terminal -->
<g id="edge1" class="edge">
<title>Expression&#45;&gt;Terminal</title>
<path fill="none" stroke="black" d="M157.97,-139.15C147.94,-129.4 136.63,-118.4 127.51,-109.53"/>
<polygon fill="none" stroke="black" points="155.72,-141.85 165.33,-146.31 160.6,-136.83 155.72,-141.85"/>
</g>
<!-- Operator -->
<g id="node5" class="node">
<title>Operator</title>
<polygon fill="none" stroke="black" points="260.5,-73.5 260.5,-109.5 325.5,-109.5 325.5,-73.5 260.5,-73.5"/>
<text text-anchor="middle" x="293" y="-87.8" font-family="Times,serif" font-size="14.00">Operator</text>
</g>
<!-- Expression&#45;&gt;Operator -->
<g id="edge4" class="edge">
<title>Expression&#45;&gt;Operator</title>
<path fill="none" stroke="black" d="M217.8,-141.04C233.55,-130.87 251.87,-119.05 266.49,-109.61"/>
<polygon fill="none" stroke="black" points="215.85,-138.13 209.35,-146.49 219.65,-144.01 215.85,-138.13"/>
</g>
<!-- Number -->
<g id="node3" class="node">
<title>Number</title>
<polygon fill="none" stroke="black" points="0,-0.5 0,-36.5 62,-36.5 62,-0.5 0,-0.5"/>
<text text-anchor="middle" x="31" y="-14.8" font-family="Times,serif" font-size="14.00">Number</text>
</g>
<!-- Terminal&#45;&gt;Number -->
<g id="edge2" class="edge">
<title>Terminal&#45;&gt;Number</title>
<path fill="none" stroke="black" d="M83.23,-66.44C72.3,-56.62 59.91,-45.49 49.95,-36.53"/>
<polygon fill="none" stroke="black" points="81.1,-69.23 90.88,-73.31 85.78,-64.03 81.1,-69.23"/>
</g>
<!-- Symbol -->
<g id="node4" class="node">
<title>Symbol</title>
<polygon fill="none" stroke="black" points="80.5,-0.5 80.5,-36.5 139.5,-36.5 139.5,-0.5 80.5,-0.5"/>
<text text-anchor="middle" x="110" y="-14.8" font-family="Times,serif" font-size="14.00">Symbol</text>
</g>
<!-- Terminal&#45;&gt;Symbol -->
<g id="edge3" class="edge">
<title>Terminal&#45;&gt;Symbol</title>
<path fill="none" stroke="black" d="M110,-63.25C110,-54.27 110,-44.53 110,-36.53"/>
<polygon fill="none" stroke="black" points="106.5,-63.31 110,-73.31 113.5,-63.31 106.5,-63.31"/>
</g>
<!-- Add -->
<g id="node6" class="node">
<title>Add</title>
<polygon fill="none" stroke="black" points="158,-0.5 158,-36.5 212,-36.5 212,-0.5 158,-0.5"/>
<text text-anchor="middle" x="185" y="-14.8" font-family="Times,serif" font-size="14.00">Add</text>
</g>
<!-- Operator&#45;&gt;Add -->
<g id="edge5" class="edge">
<title>Operator&#45;&gt;Add</title>
<path fill="none" stroke="black" d="M258.41,-67.76C243.04,-57.65 225.25,-45.96 211.03,-36.61"/>
<polygon fill="none" stroke="black" points="256.85,-70.92 267.13,-73.49 260.7,-65.08 256.85,-70.92"/>
</g>
<!-- Mul -->
<g id="node7" class="node">
<title>Mul</title>
<polygon fill="none" stroke="black" points="230,-0.5 230,-36.5 284,-36.5 284,-0.5 230,-0.5"/>
<text text-anchor="middle" x="257" y="-14.8" font-family="Times,serif" font-size="14.00">Mul</text>
</g>
<!-- Operator&#45;&gt;Mul -->
<g id="edge6" class="edge">
<title>Operator&#45;&gt;Mul</title>
<path fill="none" stroke="black" d="M279.63,-64.13C274.95,-54.9 269.82,-44.79 265.63,-36.53"/>
<polygon fill="none" stroke="black" points="276.64,-65.98 284.29,-73.31 282.88,-62.81 276.64,-65.98"/>
</g>
<!-- Sub -->
<g id="node8" class="node">
<title>Sub</title>
<polygon fill="none" stroke="black" points="302,-0.5 302,-36.5 356,-36.5 356,-0.5 302,-0.5"/>
<text text-anchor="middle" x="329" y="-14.8" font-family="Times,serif" font-size="14.00">Sub</text>
</g>
<!-- Operator&#45;&gt;Sub -->
<g id="edge7" class="edge">
<title>Operator&#45;&gt;Sub</title>
<path fill="none" stroke="black" d="M306.37,-64.13C311.05,-54.9 316.18,-44.79 320.37,-36.53"/>
<polygon fill="none" stroke="black" points="303.12,-62.81 301.71,-73.31 309.36,-65.98 303.12,-62.81"/>
</g>
<!-- Div -->
<g id="node9" class="node">
<title>Div</title>
<polygon fill="none" stroke="black" points="374,-0.5 374,-36.5 428,-36.5 428,-0.5 374,-0.5"/>
<text text-anchor="middle" x="401" y="-14.8" font-family="Times,serif" font-size="14.00">Div</text>
</g>
<!-- Operator&#45;&gt;Div -->
<g id="edge8" class="edge">
<title>Operator&#45;&gt;Div</title>
<path fill="none" stroke="black" d="M327.59,-67.76C342.96,-57.65 360.75,-45.96 374.97,-36.61"/>
<polygon fill="none" stroke="black" points="325.3,-65.08 318.87,-73.49 329.15,-70.92 325.3,-65.08"/>
</g>
<!-- Pow -->
<g id="node10" class="node">
<title>Pow</title>
<polygon fill="none" stroke="black" points="446,-0.5 446,-36.5 500,-36.5 500,-0.5 446,-0.5"/>
<text text-anchor="middle" x="473" y="-14.8" font-family="Times,serif" font-size="14.00">Pow</text>
</g>
<!-- Operator&#45;&gt;Pow -->
<g id="edge9" class="edge">
<title>Operator&#45;&gt;Pow</title>
<path fill="none" stroke="black" d="M335.45,-75.95C364.35,-65.74 403.33,-51.4 437,-37 439.81,-35.8 442.72,-34.49 445.61,-33.15"/>
<polygon fill="none" stroke="black" points="333.94,-72.77 325.67,-79.38 336.26,-79.37 333.94,-72.77"/>
</g>
</g>
</svg>
