<?xml version="1.0" encoding="UTF-8" standalone="no"?>
<!DOCTYPE svg PUBLIC "-//W3C//DTD SVG 1.1//EN"
 "http://www.w3.org/Graphics/SVG/1.1/DTD/svg11.dtd">
<!-- Generated by graphviz version 2.44.1 (20200629.0846)
 -->
<!-- Title: dl Pages: 1 -->
<svg width="332pt" height="250pt"
 viewBox="0.00 0.00 332.00 250.00" xmlns="http://www.w3.org/2000/svg" xmlns:xlink="http://www.w3.org/1999/xlink">
<g id="graph0" class="graph" transform="scale(1 1) rotate(0) translate(4 246)">
<title>dl</title>
<polygon fill="transparent" stroke="transparent" points="-4,4 -4,-246 328,-246 328,4 -4,4"/>
<g id="clust1" class="cluster">
<title>cluster_0</title>
<polygon fill="#cd5c5c" stroke="black" stroke-dasharray="5,2" points="8,-112 8,-234 78,-234 78,-112 8,-112"/>
</g>
<g id="clust2" class="cluster">
<title>cluster_3</title>
<polygon fill="#2e8b57" stroke="black" stroke-dasharray="5,2" points="99,-8 99,-234 316,-234 316,-8 99,-8"/>
</g>
<!-- node0 -->
<g id="node1" class="node">
<title>node0</title>
<polygon fill="none" stroke="black" points="16,-121 16,-225 70,-225 70,-121 16,-121"/>
<text text-anchor="middle" x="43" y="-208.2" font-family="Times,serif" font-size="16.00">2</text>
<polyline fill="none" stroke="black" points="16,-199 70,-199 "/>
<text text-anchor="middle" x="43" y="-182.2" font-family="Times,serif" font-size="16.00">3</text>
<polyline fill="none" stroke="black" points="16,-173 70,-173 "/>
<text text-anchor="middle" x="43" y="-156.2" font-family="Times,serif" font-size="16.00">5</text>
<polyline fill="none" stroke="black" points="16,-147 70,-147 "/>
<text text-anchor="middle" x="43" y="-130.2" font-family="Times,serif" font-size="16.00">7</text>
<polyline fill="none" stroke="black" points="16,-121 70,-121 "/>
</g>
<!-- node1 -->
<g id="node2" class="node">
<title>node1</title>
<polygon fill="none" stroke="black" points="107,-17 107,-225 161,-225 161,-17 107,-17"/>
<text text-anchor="middle" x="134" y="-208.2" font-family="Times,serif" font-size="16.00">2</text>
<polyline fill="none" stroke="black" points="107,-199 161,-199 "/>
<text text-anchor="middle" x="134" y="-182.2" font-family="Times,serif" font-size="16.00">3</text>
<polyline fill="none" stroke="black" points="107,-173 161,-173 "/>
<text text-anchor="middle" x="134" y="-156.2" font-family="Times,serif" font-size="16.00">5</text>
<polyline fill="none" stroke="black" points="107,-147 161,-147 "/>
<text text-anchor="middle" x="134" y="-130.2" font-family="Times,serif" font-size="16.00">7</text>
<polyline fill="none" stroke="black" points="107,-121 161,-121 "/>
<text text-anchor="middle" x="134" y="-104.2" font-family="Times,serif" font-size="16.00">11</text>
<polyline fill="none" stroke="black" points="107,-95 161,-95 "/>
<text text-anchor="middle" x="134" y="-78.2" font-family="Times,serif" font-size="16.00"> </text>
<polyline fill="none" stroke="black" points="107,-69 161,-69 "/>
<text text-anchor="middle" x="134" y="-52.2" font-family="Times,serif" font-size="16.00"> </text>
<polyline fill="none" stroke="black" points="107,-43 161,-43 "/>
<text text-anchor="middle" x="134" y="-26.2" font-family="Times,serif" font-size="16.00"> </text>
</g>
<!-- node0&#45;&gt;node1 -->
<g id="0" class="edge">
<title>node0:f0&#45;&gt;node1:f0</title>
<path fill="none" stroke="black" d="M71,-212C82.55,-212 87.66,-212 95.9,-212"/>
<polygon fill="black" stroke="black" points="96,-215.5 106,-212 96,-208.5 96,-215.5"/>
</g>
<!-- node3 -->
<g id="node3" class="node">
<title>node3</title>
<polygon fill="none" stroke="black" points="254,-17 254,-225 308,-225 308,-17 254,-17"/>
<text text-anchor="middle" x="281" y="-208.2" font-family="Times,serif" font-size="16.00">2</text>
<polyline fill="none" stroke="black" points="254,-199 308,-199 "/>
<text text-anchor="middle" x="281" y="-182.2" font-family="Times,serif" font-size="16.00">3</text>
<polyline fill="none" stroke="black" points="254,-173 308,-173 "/>
<text text-anchor="middle" x="281" y="-156.2" font-family="Times,serif" font-size="16.00">5</text>
<polyline fill="none" stroke="black" points="254,-147 308,-147 "/>
<text text-anchor="middle" x="281" y="-130.2" font-family="Times,serif" font-size="16.00">7</text>
<polyline fill="none" stroke="black" points="254,-121 308,-121 "/>
<text text-anchor="middle" x="281" y="-104.2" font-family="Times,serif" font-size="16.00">11</text>
<polyline fill="none" stroke="black" points="254,-95 308,-95 "/>
<text text-anchor="middle" x="281" y="-78.2" font-family="Times,serif" font-size="16.00">13</text>
<polyline fill="none" stroke="black" points="254,-69 308,-69 "/>
<text text-anchor="middle" x="281" y="-52.2" font-family="Times,serif" font-size="16.00"> </text>
<polyline fill="none" stroke="black" points="254,-43 308,-43 "/>
<text text-anchor="middle" x="281" y="-26.2" font-family="Times,serif" font-size="16.00"> </text>
</g>
<!-- node1&#45;&gt;node3 -->
<g id="2" class="edge">
<title>node1:f0&#45;&gt;node3:f1</title>
<path fill="none" stroke="black" d="M161,-212C167.57,-212 224.26,-137.27 246.09,-114.51"/>
<polygon fill="black" stroke="black" points="248.5,-117.06 254,-108 244.05,-111.65 248.5,-117.06"/>
<text text-anchor="middle" x="207.5" y="-195.8" font-family="Times,serif" font-size="14.00">append 11</text>
</g>
<!-- node1&#45;&gt;node3 -->
<g id="2" class="edge">
<title>node1:f0&#45;&gt;node3:f2</title>
<path fill="none" stroke="black" d="M161,-212C184.45,-212 163.81,-125.87 179,-108 199.52,-83.84 215.23,-82.11 243.79,-82"/>
<polygon fill="black" stroke="black" points="244,-85.5 254,-82 244,-78.5 244,-85.5"/>
<text text-anchor="middle" x="207.5" y="-111.8" font-family="Times,serif" font-size="14.00">append 13</text>
</g>
</g>
</svg>
