<?xml version="1.0" encoding="UTF-8" standalone="no"?>
<!DOCTYPE svg PUBLIC "-//W3C//DTD SVG 1.1//EN"
 "http://www.w3.org/Graphics/SVG/1.1/DTD/svg11.dtd">
<!-- Generated by graphviz version 2.43.0 (0)
 -->
<!-- Title: %3 Pages: 1 -->
<svg width="278pt" height="188pt"
 viewBox="0.00 0.00 278.00 188.00" xmlns="http://www.w3.org/2000/svg" xmlns:xlink="http://www.w3.org/1999/xlink">
<g id="graph0" class="graph" transform="scale(1 1) rotate(0) translate(4 184)">
<title>%3</title>
<polygon fill="white" stroke="transparent" points="-4,4 -4,-184 274,-184 274,4 -4,4"/>
<!-- a -->
<g id="node1" class="node">
<title>a</title>
<ellipse fill="none" stroke="black" cx="171" cy="-162" rx="27" ry="18"/>
<text text-anchor="middle" x="171" y="-158.3" font-family="Times,serif" font-size="14.00">a</text>
</g>
<!-- b -->
<g id="node2" class="node">
<title>b</title>
<ellipse fill="none" stroke="black" cx="117" cy="-90" rx="27" ry="18"/>
<text text-anchor="middle" x="117" y="-86.3" font-family="Times,serif" font-size="14.00">b</text>
</g>
<!-- a&#45;&gt;b -->
<g id="edge1" class="edge">
<title>a&#45;&gt;b</title>
<path fill="none" stroke="black" d="M159.02,-145.46C152.02,-136.4 143.06,-124.79 135.21,-114.61"/>
<polygon fill="black" stroke="black" points="137.83,-112.27 128.95,-106.49 132.29,-116.55 137.83,-112.27"/>
</g>
<!-- c -->
<g id="node6" class="node">
<title>c</title>
<ellipse fill="none" stroke="black" cx="225" cy="-90" rx="27" ry="18"/>
<text text-anchor="middle" x="225" y="-86.3" font-family="Times,serif" font-size="14.00">c</text>
</g>
<!-- a&#45;&gt;c -->
<g id="edge5" class="edge">
<title>a&#45;&gt;c</title>
<path fill="none" stroke="black" d="M182.98,-145.46C189.98,-136.4 198.94,-124.79 206.79,-114.61"/>
<polygon fill="black" stroke="black" points="209.71,-116.55 213.05,-106.49 204.17,-112.27 209.71,-116.55"/>
</g>
<!-- d -->
<g id="node3" class="node">
<title>d</title>
<ellipse fill="none" stroke="black" cx="27" cy="-18" rx="27" ry="18"/>
<text text-anchor="middle" x="27" y="-14.3" font-family="Times,serif" font-size="14.00">d</text>
</g>
<!-- b&#45;&gt;d -->
<g id="edge2" class="edge">
<title>b&#45;&gt;d</title>
<path fill="none" stroke="black" d="M100.07,-75.83C86.5,-65.27 67.24,-50.3 51.91,-38.37"/>
<polygon fill="black" stroke="black" points="53.89,-35.48 43.85,-32.11 49.6,-41.01 53.89,-35.48"/>
</g>
<!-- e -->
<g id="node4" class="node">
<title>e</title>
<ellipse fill="none" stroke="black" cx="99" cy="-18" rx="27" ry="18"/>
<text text-anchor="middle" x="99" y="-14.3" font-family="Times,serif" font-size="14.00">e</text>
</g>
<!-- b&#45;&gt;e -->
<g id="edge3" class="edge">
<title>b&#45;&gt;e</title>
<path fill="none" stroke="black" d="M112.64,-72.05C110.61,-64.14 108.14,-54.54 105.86,-45.69"/>
<polygon fill="black" stroke="black" points="109.2,-44.6 103.32,-35.79 102.42,-46.35 109.2,-44.6"/>
</g>
<!-- f -->
<g id="node5" class="node">
<title>f</title>
<ellipse fill="none" stroke="black" cx="171" cy="-18" rx="27" ry="18"/>
<text text-anchor="middle" x="171" y="-14.3" font-family="Times,serif" font-size="14.00">f</text>
</g>
<!-- b&#45;&gt;f -->
<g id="edge4" class="edge">
<title>b&#45;&gt;f</title>
<path fill="none" stroke="black" d="M128.98,-73.46C135.98,-64.4 144.94,-52.79 152.79,-42.61"/>
<polygon fill="black" stroke="black" points="155.71,-44.55 159.05,-34.49 150.17,-40.27 155.71,-44.55"/>
</g>
<!-- g -->
<g id="node7" class="node">
<title>g</title>
<ellipse fill="none" stroke="black" cx="243" cy="-18" rx="27" ry="18"/>
<text text-anchor="middle" x="243" y="-14.3" font-family="Times,serif" font-size="14.00">g</text>
</g>
<!-- c&#45;&gt;g -->
<g id="edge6" class="edge">
<title>c&#45;&gt;g</title>
<path fill="none" stroke="black" d="M229.36,-72.05C231.39,-64.14 233.86,-54.54 236.14,-45.69"/>
<polygon fill="black" stroke="black" points="239.58,-46.35 238.68,-35.79 232.8,-44.6 239.58,-46.35"/>
</g>
</g>
</svg>
