<?xml version="1.0" encoding="UTF-8" standalone="no"?>
<!DOCTYPE svg PUBLIC "-//W3C//DTD SVG 1.1//EN"
 "http://www.w3.org/Graphics/SVG/1.1/DTD/svg11.dtd">
<!-- Generated by graphviz version 2.44.1 (20200629.0846)
 -->
<!-- Pages: 1 -->
<svg width="172pt" height="260pt"
 viewBox="0.00 0.00 171.73 260.00" xmlns="http://www.w3.org/2000/svg" xmlns:xlink="http://www.w3.org/1999/xlink">
<g id="graph0" class="graph" transform="scale(1 1) rotate(0) translate(4 256)">
<polygon fill="white" stroke="transparent" points="-4,4 -4,-256 167.73,-256 167.73,4 -4,4"/>
<!-- a -->
<g id="node1" class="node">
<title>a</title>
<ellipse fill="none" stroke="black" cx="60.2" cy="-234" rx="27" ry="18"/>
<text text-anchor="middle" x="60.2" y="-230.3" font-family="Times,serif" font-size="14.00">a</text>
</g>
<!-- b -->
<g id="node2" class="node">
<title>b</title>
<ellipse fill="none" stroke="black" cx="124.2" cy="-162" rx="27" ry="18"/>
<text text-anchor="middle" x="124.2" y="-158.3" font-family="Times,serif" font-size="14.00">b</text>
</g>
<!-- a&#45;&gt;b -->
<g id="edge1" class="edge">
<title>a&#45;&gt;b</title>
<path fill="none" stroke="black" d="M73.77,-218.15C82.51,-208.6 94.03,-195.99 103.86,-185.25"/>
<polygon fill="black" stroke="black" points="106.48,-187.57 110.65,-177.82 101.32,-182.84 106.48,-187.57"/>
</g>
<!-- f -->
<g id="node5" class="node">
<title>f</title>
<ellipse fill="none" stroke="black" cx="124.2" cy="-18" rx="27" ry="18"/>
<text text-anchor="middle" x="124.2" y="-14.3" font-family="Times,serif" font-size="14.00">f</text>
</g>
<!-- a&#45;&gt;f -->
<g id="edge6" class="edge">
<title>a&#45;&gt;f</title>
<path fill="none" stroke="black" d="M43.9,-219.07C33.8,-209.3 21.72,-195.3 16.2,-180 -0.1,-134.85 -9.19,-112.74 16.2,-72 31.93,-46.76 63.57,-33.2 88.56,-26.14"/>
<polygon fill="black" stroke="black" points="89.65,-29.47 98.45,-23.57 87.89,-22.7 89.65,-29.47"/>
</g>
<!-- c -->
<g id="node3" class="node">
<title>c</title>
<ellipse fill="none" stroke="black" cx="124.2" cy="-90" rx="27" ry="18"/>
<text text-anchor="middle" x="124.2" y="-86.3" font-family="Times,serif" font-size="14.00">c</text>
</g>
<!-- b&#45;&gt;c -->
<g id="edge2" class="edge">
<title>b&#45;&gt;c</title>
<path fill="none" stroke="black" d="M124.2,-143.7C124.2,-135.98 124.2,-126.71 124.2,-118.11"/>
<polygon fill="black" stroke="black" points="127.7,-118.1 124.2,-108.1 120.7,-118.1 127.7,-118.1"/>
</g>
<!-- d -->
<g id="node4" class="node">
<title>d</title>
<ellipse fill="none" stroke="black" cx="52.2" cy="-90" rx="27" ry="18"/>
<text text-anchor="middle" x="52.2" y="-86.3" font-family="Times,serif" font-size="14.00">d</text>
</g>
<!-- b&#45;&gt;d -->
<g id="edge3" class="edge">
<title>b&#45;&gt;d</title>
<path fill="none" stroke="black" d="M109.63,-146.83C99.45,-136.94 85.68,-123.55 74.17,-112.36"/>
<polygon fill="black" stroke="black" points="76.61,-109.85 67,-105.38 71.73,-114.87 76.61,-109.85"/>
</g>
<!-- b&#45;&gt;f -->
<g id="edge5" class="edge">
<title>b&#45;&gt;f</title>
<path fill="none" stroke="black" d="M137.95,-146.07C146.16,-136.1 155.82,-122.25 160.2,-108 164.9,-92.71 164.9,-87.29 160.2,-72 156.91,-61.31 150.66,-50.85 144.27,-42.08"/>
<polygon fill="black" stroke="black" points="146.85,-39.69 137.95,-33.93 141.32,-43.98 146.85,-39.69"/>
</g>
<!-- c&#45;&gt;f -->
<g id="edge4" class="edge">
<title>c&#45;&gt;f</title>
<path fill="none" stroke="black" d="M124.2,-71.7C124.2,-63.98 124.2,-54.71 124.2,-46.11"/>
<polygon fill="black" stroke="black" points="127.7,-46.1 124.2,-36.1 120.7,-46.1 127.7,-46.1"/>
</g>
<!-- e -->
<g id="node6" class="node">
<title>e</title>
<ellipse fill="none" stroke="black" cx="52.2" cy="-162" rx="27" ry="18"/>
<text text-anchor="middle" x="52.2" y="-158.3" font-family="Times,serif" font-size="14.00">e</text>
</g>
<!-- e&#45;&gt;c -->
<g id="edge7" class="edge">
<title>e&#45;&gt;c</title>
<path fill="none" stroke="black" d="M66.77,-146.83C76.95,-136.94 90.72,-123.55 102.23,-112.36"/>
<polygon fill="black" stroke="black" points="104.67,-114.87 109.4,-105.38 99.79,-109.85 104.67,-114.87"/>
</g>
<!-- e&#45;&gt;d -->
<g id="edge8" class="edge">
<title>e&#45;&gt;d</title>
<path fill="none" stroke="black" d="M52.2,-143.7C52.2,-135.98 52.2,-126.71 52.2,-118.11"/>
<polygon fill="black" stroke="black" points="55.7,-118.1 52.2,-108.1 48.7,-118.1 55.7,-118.1"/>
</g>
</g>
</svg>
