<?xml version="1.0" encoding="UTF-8" standalone="no"?>
<!DOCTYPE svg PUBLIC "-//W3C//DTD SVG 1.1//EN"
 "http://www.w3.org/Graphics/SVG/1.1/DTD/svg11.dtd">
<!-- Generated by graphviz version 2.44.1 (20200629.0846)
 -->
<!-- Title: dl Pages: 1 -->
<svg width="274pt" height="536pt"
 viewBox="0.00 0.00 274.00 536.00" xmlns="http://www.w3.org/2000/svg" xmlns:xlink="http://www.w3.org/1999/xlink">
<g id="graph0" class="graph" transform="scale(1 1) rotate(0) translate(4 532)">
<title>dl</title>
<polygon fill="transparent" stroke="transparent" points="-4,4 -4,-532 270,-532 270,4 -4,4"/>
<g id="clust1" class="cluster">
<title>cluster_0</title>
<polygon fill="#cd5c5c" stroke="black" stroke-dasharray="5,2" points="8,-209 8,-383 78,-383 78,-209 8,-209"/>
</g>
<g id="clust2" class="cluster">
<title>cluster_3</title>
<polygon fill="#2e8b57" stroke="black" stroke-dasharray="5,2" points="98,-190 98,-520 258,-520 258,-190 98,-190"/>
</g>
<g id="clust3" class="cluster">
<title>cluster_1</title>
<polygon fill="lightgray" stroke="black" stroke-dasharray="5,2" points="98,-8 98,-182 168,-182 168,-8 98,-8"/>
</g>
<!-- node0 -->
<g id="node1" class="node">
<title>node0</title>
<polygon fill="none" stroke="black" points="16,-218 16,-374 70,-374 70,-218 16,-218"/>
<text text-anchor="middle" x="43" y="-357.2" font-family="Times,serif" font-size="16.00">A</text>
<polyline fill="none" stroke="black" points="16,-348 70,-348 "/>
<text text-anchor="middle" x="43" y="-331.2" font-family="Times,serif" font-size="16.00">2</text>
<polyline fill="none" stroke="black" points="16,-322 70,-322 "/>
<text text-anchor="middle" x="43" y="-305.2" font-family="Times,serif" font-size="16.00">3</text>
<polyline fill="none" stroke="black" points="16,-296 70,-296 "/>
<text text-anchor="middle" x="43" y="-279.2" font-family="Times,serif" font-size="16.00">5</text>
<polyline fill="none" stroke="black" points="16,-270 70,-270 "/>
<text text-anchor="middle" x="43" y="-253.2" font-family="Times,serif" font-size="16.00">7</text>
<polyline fill="none" stroke="black" points="16,-244 70,-244 "/>
<text text-anchor="middle" x="43" y="-227.2" font-family="Times,serif" font-size="16.00">11</text>
<polyline fill="none" stroke="black" points="16,-218 70,-218 "/>
</g>
<!-- node1 -->
<g id="node2" class="node">
<title>node1</title>
<polygon fill="none" stroke="black" points="106,-199 106,-511 160,-511 160,-199 106,-199"/>
<text text-anchor="middle" x="133" y="-494.2" font-family="Times,serif" font-size="16.00">B</text>
<polyline fill="none" stroke="black" points="106,-485 160,-485 "/>
<text text-anchor="middle" x="133" y="-468.2" font-family="Times,serif" font-size="16.00">2</text>
<polyline fill="none" stroke="black" points="106,-459 160,-459 "/>
<text text-anchor="middle" x="133" y="-442.2" font-family="Times,serif" font-size="16.00">3</text>
<polyline fill="none" stroke="black" points="106,-433 160,-433 "/>
<text text-anchor="middle" x="133" y="-416.2" font-family="Times,serif" font-size="16.00">5</text>
<polyline fill="none" stroke="black" points="106,-407 160,-407 "/>
<text text-anchor="middle" x="133" y="-390.2" font-family="Times,serif" font-size="16.00">7</text>
<polyline fill="none" stroke="black" points="106,-381 160,-381 "/>
<text text-anchor="middle" x="133" y="-364.2" font-family="Times,serif" font-size="16.00">11</text>
<polyline fill="none" stroke="black" points="106,-355 160,-355 "/>
<text text-anchor="middle" x="133" y="-338.2" font-family="Times,serif" font-size="16.00"> </text>
<polyline fill="none" stroke="black" points="106,-329 160,-329 "/>
<text text-anchor="middle" x="133" y="-312.2" font-family="Times,serif" font-size="16.00"> </text>
<polyline fill="none" stroke="black" points="106,-303 160,-303 "/>
<text text-anchor="middle" x="133" y="-286.2" font-family="Times,serif" font-size="16.00"> </text>
<polyline fill="none" stroke="black" points="106,-277 160,-277 "/>
<text text-anchor="middle" x="133" y="-260.2" font-family="Times,serif" font-size="16.00"> </text>
<polyline fill="none" stroke="black" points="106,-251 160,-251 "/>
<text text-anchor="middle" x="133" y="-234.2" font-family="Times,serif" font-size="16.00"> </text>
<polyline fill="none" stroke="black" points="106,-225 160,-225 "/>
<text text-anchor="middle" x="133" y="-208.2" font-family="Times,serif" font-size="16.00"> </text>
</g>
<!-- node0&#45;&gt;node1 -->
<g id="0" class="edge">
<title>node0:f0&#45;&gt;node1:f0</title>
<path fill="none" stroke="black" d="M71,-361C129.81,-361 53.1,-481.41 94.97,-496.46"/>
<polygon fill="black" stroke="black" points="94.58,-499.94 105,-498 95.65,-493.02 94.58,-499.94"/>
</g>
<!-- node2 -->
<g id="node4" class="node">
<title>node2</title>
<polygon fill="none" stroke="black" points="106,-17 106,-173 160,-173 160,-17 106,-17"/>
<text text-anchor="middle" x="133" y="-156.2" font-family="Times,serif" font-size="16.00"> </text>
<polyline fill="none" stroke="black" points="106,-147 160,-147 "/>
<text text-anchor="middle" x="133" y="-130.2" font-family="Times,serif" font-size="16.00"> </text>
<polyline fill="none" stroke="black" points="106,-121 160,-121 "/>
<text text-anchor="middle" x="133" y="-104.2" font-family="Times,serif" font-size="16.00"> </text>
<polyline fill="none" stroke="black" points="106,-95 160,-95 "/>
<text text-anchor="middle" x="133" y="-78.2" font-family="Times,serif" font-size="16.00"> </text>
<polyline fill="none" stroke="black" points="106,-69 160,-69 "/>
<text text-anchor="middle" x="133" y="-52.2" font-family="Times,serif" font-size="16.00"> </text>
<polyline fill="none" stroke="black" points="106,-43 160,-43 "/>
<text text-anchor="middle" x="133" y="-26.2" font-family="Times,serif" font-size="16.00"> </text>
<polyline fill="none" stroke="black" points="106,-17 160,-17 "/>
</g>
<!-- node0&#45;&gt;node2 -->
<g id="1" class="edge">
<title>node0:f1&#45;&gt;node2:f0</title>
<path fill="none" stroke="black" d="M70.29,-295.77C115.93,-259.72 51.75,-171.93 94.88,-161.1"/>
<polygon fill="black" stroke="black" points="95.44,-164.56 105,-160 94.68,-157.6 95.44,-164.56"/>
</g>
<!-- node3 -->
<g id="node3" class="node">
<title>node3</title>
<polygon fill="none" stroke="black" points="196,-199 196,-511 250,-511 250,-199 196,-199"/>
<text text-anchor="middle" x="223" y="-494.2" font-family="Times,serif" font-size="16.00">A</text>
<polyline fill="none" stroke="black" points="196,-485 250,-485 "/>
<text text-anchor="middle" x="223" y="-468.2" font-family="Times,serif" font-size="16.00">2</text>
<polyline fill="none" stroke="black" points="196,-459 250,-459 "/>
<text text-anchor="middle" x="223" y="-442.2" font-family="Times,serif" font-size="16.00">3</text>
<polyline fill="none" stroke="black" points="196,-433 250,-433 "/>
<text text-anchor="middle" x="223" y="-416.2" font-family="Times,serif" font-size="16.00">5</text>
<polyline fill="none" stroke="black" points="196,-407 250,-407 "/>
<text text-anchor="middle" x="223" y="-390.2" font-family="Times,serif" font-size="16.00">7</text>
<polyline fill="none" stroke="black" points="196,-381 250,-381 "/>
<text text-anchor="middle" x="223" y="-364.2" font-family="Times,serif" font-size="16.00">11</text>
<polyline fill="none" stroke="black" points="196,-355 250,-355 "/>
<text text-anchor="middle" x="223" y="-338.2" font-family="Times,serif" font-size="16.00"> </text>
<polyline fill="none" stroke="black" points="196,-329 250,-329 "/>
<text text-anchor="middle" x="223" y="-312.2" font-family="Times,serif" font-size="16.00"> </text>
<polyline fill="none" stroke="black" points="196,-303 250,-303 "/>
<text text-anchor="middle" x="223" y="-286.2" font-family="Times,serif" font-size="16.00"> </text>
<polyline fill="none" stroke="black" points="196,-277 250,-277 "/>
<text text-anchor="middle" x="223" y="-260.2" font-family="Times,serif" font-size="16.00"> </text>
<polyline fill="none" stroke="black" points="196,-251 250,-251 "/>
<text text-anchor="middle" x="223" y="-234.2" font-family="Times,serif" font-size="16.00"> </text>
<polyline fill="none" stroke="black" points="196,-225 250,-225 "/>
<text text-anchor="middle" x="223" y="-208.2" font-family="Times,serif" font-size="16.00"> </text>
</g>
<!-- node1&#45;&gt;node3 -->
<g id="2" class="edge">
<title>node1:f0&#45;&gt;node3:f0</title>
<path fill="none" stroke="black" d="M161,-498C172.55,-498 177.66,-498 185.9,-498"/>
<polygon fill="black" stroke="black" points="186,-501.5 196,-498 186,-494.5 186,-501.5"/>
</g>
</g>
</svg>
