<?xml version="1.0" encoding="UTF-8" standalone="no"?>
<!DOCTYPE svg PUBLIC "-//W3C//DTD SVG 1.1//EN"
 "http://www.w3.org/Graphics/SVG/1.1/DTD/svg11.dtd">
<!-- Generated by graphviz version 2.44.1 (20200629.0846)
 -->
<!-- Pages: 1 -->
<svg width="170pt" height="260pt"
 viewBox="0.00 0.00 170.00 260.00" xmlns="http://www.w3.org/2000/svg" xmlns:xlink="http://www.w3.org/1999/xlink">
<g id="graph0" class="graph" transform="scale(1 1) rotate(0) translate(4 256)">
<polygon fill="white" stroke="transparent" points="-4,4 -4,-256 166,-256 166,4 -4,4"/>
<!-- a -->
<g id="node1" class="node">
<title>a</title>
<ellipse fill="none" stroke="black" cx="63" cy="-234" rx="27" ry="18"/>
<text text-anchor="middle" x="63" y="-230.3" font-family="Times,serif" font-size="14.00">a</text>
</g>
<!-- b -->
<g id="node2" class="node">
<title>b</title>
<ellipse fill="none" stroke="black" cx="127" cy="-162" rx="27" ry="18"/>
<text text-anchor="middle" x="127" y="-158.3" font-family="Times,serif" font-size="14.00">b</text>
</g>
<!-- a&#45;&gt;b -->
<g id="edge1" class="edge">
<title>a&#45;&gt;b</title>
<path fill="none" stroke="black" d="M76.57,-218.15C85.31,-208.6 96.83,-195.99 106.66,-185.25"/>
<polygon fill="black" stroke="black" points="109.28,-187.57 113.45,-177.82 104.12,-182.84 109.28,-187.57"/>
</g>
<!-- c -->
<g id="node3" class="node">
<title>c</title>
<ellipse fill="none" stroke="black" cx="99" cy="-90" rx="27" ry="18"/>
<text text-anchor="middle" x="99" y="-86.3" font-family="Times,serif" font-size="14.00">c</text>
</g>
<!-- b&#45;&gt;c -->
<g id="edge2" class="edge">
<title>b&#45;&gt;c</title>
<path fill="none" stroke="black" d="M120.36,-144.41C117.09,-136.22 113.06,-126.14 109.38,-116.95"/>
<polygon fill="black" stroke="black" points="112.55,-115.45 105.59,-107.47 106.05,-118.05 112.55,-115.45"/>
</g>
<!-- d -->
<g id="node4" class="node">
<title>d</title>
<ellipse fill="none" stroke="black" cx="27" cy="-90" rx="27" ry="18"/>
<text text-anchor="middle" x="27" y="-86.3" font-family="Times,serif" font-size="14.00">d</text>
</g>
<!-- b&#45;&gt;d -->
<g id="edge3" class="edge">
<title>b&#45;&gt;d</title>
<path fill="none" stroke="black" d="M109.12,-148.49C93.72,-137.7 71.26,-121.98 53.72,-109.7"/>
<polygon fill="black" stroke="black" points="55.26,-106.51 45.06,-103.64 51.25,-112.24 55.26,-106.51"/>
</g>
<!-- f -->
<g id="node5" class="node">
<title>f</title>
<ellipse fill="none" stroke="black" cx="126" cy="-18" rx="27" ry="18"/>
<text text-anchor="middle" x="126" y="-14.3" font-family="Times,serif" font-size="14.00">f</text>
</g>
<!-- c&#45;&gt;f -->
<g id="edge4" class="edge">
<title>c&#45;&gt;f</title>
<path fill="none" stroke="black" d="M105.4,-72.41C108.51,-64.34 112.33,-54.43 115.83,-45.35"/>
<polygon fill="black" stroke="black" points="119.13,-46.55 119.46,-35.96 112.6,-44.03 119.13,-46.55"/>
</g>
<!-- d&#45;&gt;a -->
<g id="edge6" class="edge">
<title>d&#45;&gt;a</title>
<path fill="none" stroke="black" d="M21.39,-107.62C16.14,-125.91 10.31,-155.92 19,-180 23.27,-191.83 31.46,-202.89 39.63,-211.81"/>
<polygon fill="black" stroke="black" points="37.21,-214.35 46.7,-219.07 42.23,-209.46 37.21,-214.35"/>
</g>
<!-- f&#45;&gt;b -->
<g id="edge5" class="edge">
<title>f&#45;&gt;b</title>
<path fill="none" stroke="black" d="M129.65,-36.09C131.68,-46.43 133.98,-59.91 135,-72 136.34,-87.94 136.2,-92.04 135,-108 134.36,-116.48 133.16,-125.66 131.88,-133.96"/>
<polygon fill="black" stroke="black" points="128.42,-133.45 130.25,-143.89 135.32,-134.59 128.42,-133.45"/>
</g>
<!-- &#45; -->
<g id="node6" class="node">
<title>&#45;</title>
<ellipse fill="none" stroke="black" cx="135" cy="-234" rx="27" ry="18"/>
<text text-anchor="middle" x="135" y="-230.3" font-family="Times,serif" font-size="14.00">&#45;</text>
</g>
<!-- e -->
<g id="node7" class="node">
<title>e</title>
<ellipse fill="none" stroke="black" cx="55" cy="-162" rx="27" ry="18"/>
<text text-anchor="middle" x="55" y="-158.3" font-family="Times,serif" font-size="14.00">e</text>
</g>
<!-- e&#45;&gt;c -->
<g id="edge7" class="edge">
<title>e&#45;&gt;c</title>
<path fill="none" stroke="black" d="M64.98,-145.12C70.5,-136.34 77.46,-125.26 83.65,-115.42"/>
<polygon fill="black" stroke="black" points="86.7,-117.15 89.06,-106.82 80.77,-113.42 86.7,-117.15"/>
</g>
<!-- e&#45;&gt;d -->
<g id="edge8" class="edge">
<title>e&#45;&gt;d</title>
<path fill="none" stroke="black" d="M48.36,-144.41C45.09,-136.22 41.06,-126.14 37.38,-116.95"/>
<polygon fill="black" stroke="black" points="40.55,-115.45 33.59,-107.47 34.05,-118.05 40.55,-115.45"/>
</g>
</g>
</svg>
