<?xml version="1.0" encoding="UTF-8" standalone="no"?>
<!DOCTYPE svg PUBLIC "-//W3C//DTD SVG 1.1//EN"
 "http://www.w3.org/Graphics/SVG/1.1/DTD/svg11.dtd">
<!-- Generated by graphviz version 2.44.1 (20200629.0846)
 -->
<!-- Pages: 1 -->
<svg width="189pt" height="260pt"
 viewBox="0.00 0.00 189.00 260.00" xmlns="http://www.w3.org/2000/svg" xmlns:xlink="http://www.w3.org/1999/xlink">
<g id="graph0" class="graph" transform="scale(1 1) rotate(0) translate(4 256)">
<polygon fill="white" stroke="transparent" points="-4,4 -4,-256 185,-256 185,4 -4,4"/>
<!-- a -->
<g id="node1" class="node">
<title>a</title>
<ellipse fill="none" stroke="black" cx="137" cy="-234" rx="27" ry="18"/>
<text text-anchor="middle" x="137" y="-230.3" font-family="Times,serif" font-size="14.00">a</text>
</g>
<!-- b -->
<g id="node2" class="node">
<title>b</title>
<ellipse fill="none" stroke="black" cx="137" cy="-162" rx="27" ry="18"/>
<text text-anchor="middle" x="137" y="-158.3" font-family="Times,serif" font-size="14.00">b</text>
</g>
<!-- a&#45;&#45;b -->
<g id="edge1" class="edge">
<title>a&#45;&#45;b</title>
<path fill="none" stroke="black" d="M137,-215.7C137,-204.85 137,-190.92 137,-180.1"/>
</g>
<!-- c -->
<g id="node3" class="node">
<title>c</title>
<ellipse fill="none" stroke="black" cx="99" cy="-90" rx="27" ry="18"/>
<text text-anchor="middle" x="99" y="-86.3" font-family="Times,serif" font-size="14.00">c</text>
</g>
<!-- b&#45;&#45;c -->
<g id="edge2" class="edge">
<title>b&#45;&#45;c</title>
<path fill="none" stroke="black" d="M128.19,-144.76C122.05,-133.46 113.89,-118.44 107.77,-107.15"/>
</g>
<!-- d -->
<g id="node4" class="node">
<title>d</title>
<ellipse fill="none" stroke="black" cx="27" cy="-90" rx="27" ry="18"/>
<text text-anchor="middle" x="27" y="-86.3" font-family="Times,serif" font-size="14.00">d</text>
</g>
<!-- b&#45;&#45;d -->
<g id="edge3" class="edge">
<title>b&#45;&#45;d</title>
<path fill="none" stroke="black" d="M117.84,-148.81C97.65,-135.96 66.05,-115.85 45.94,-103.05"/>
</g>
<!-- f -->
<g id="node5" class="node">
<title>f</title>
<ellipse fill="none" stroke="black" cx="154" cy="-18" rx="27" ry="18"/>
<text text-anchor="middle" x="154" y="-14.3" font-family="Times,serif" font-size="14.00">f</text>
</g>
<!-- c&#45;&#45;f -->
<g id="edge4" class="edge">
<title>c&#45;&#45;f</title>
<path fill="none" stroke="black" d="M110.93,-73.81C120.16,-62.07 132.87,-45.89 142.09,-34.16"/>
</g>
<!-- d&#45;&#45;a -->
<g id="edge6" class="edge">
<title>d&#45;&#45;a</title>
<path fill="none" stroke="black" d="M22.52,-107.9C18.49,-127 15.1,-158.25 29,-180 47.1,-208.34 85.15,-221.99 110.9,-228.23"/>
</g>
<!-- f&#45;&#45;a -->
<g id="edge7" class="edge">
<title>f&#45;&#45;a</title>
<path fill="none" stroke="black" d="M160.44,-35.86C170.83,-65.63 188.64,-129.15 173,-180 168.62,-194.25 158.96,-208.1 150.75,-218.07"/>
</g>
<!-- f&#45;&#45;b -->
<g id="edge5" class="edge">
<title>f&#45;&#45;b</title>
<path fill="none" stroke="black" d="M151.94,-36.19C148.67,-63.52 142.32,-116.58 139.05,-143.87"/>
</g>
<!-- e -->
<g id="node6" class="node">
<title>e</title>
<ellipse fill="none" stroke="black" cx="65" cy="-162" rx="27" ry="18"/>
<text text-anchor="middle" x="65" y="-158.3" font-family="Times,serif" font-size="14.00">e</text>
</g>
<!-- e&#45;&#45;c -->
<g id="edge8" class="edge">
<title>e&#45;&#45;c</title>
<path fill="none" stroke="black" d="M72.89,-144.76C78.3,-133.62 85.47,-118.87 90.92,-107.63"/>
</g>
<!-- e&#45;&#45;d -->
<g id="edge9" class="edge">
<title>e&#45;&#45;d</title>
<path fill="none" stroke="black" d="M56.19,-144.76C50.05,-133.46 41.89,-118.44 35.77,-107.15"/>
</g>
</g>
</svg>
