<?xml version="1.0" encoding="UTF-8" standalone="no"?>
<!DOCTYPE svg PUBLIC "-//W3C//DTD SVG 1.1//EN"
 "http://www.w3.org/Graphics/SVG/1.1/DTD/svg11.dtd">
<!-- Generated by graphviz version 2.44.1 (20200629.0846)
 -->
<!-- Pages: 1 -->
<svg width="228pt" height="278pt"
 viewBox="0.00 0.00 227.53 277.74" xmlns="http://www.w3.org/2000/svg" xmlns:xlink="http://www.w3.org/1999/xlink">
<g id="graph0" class="graph" transform="scale(1 1) rotate(0) translate(4 273.74)">
<polygon fill="white" stroke="transparent" points="-4,4 -4,-273.74 223.53,-273.74 223.53,4 -4,4"/>
<!-- a -->
<g id="node1" class="node">
<title>a</title>
<ellipse fill="none" stroke="black" cx="109" cy="-242.87" rx="27" ry="18"/>
<text text-anchor="middle" x="109" y="-239.17" font-family="Times,serif" font-size="14.00">a</text>
</g>
<!-- b -->
<g id="node2" class="node">
<title>b</title>
<ellipse fill="none" stroke="black" cx="82" cy="-162" rx="27" ry="18"/>
<text text-anchor="middle" x="82" y="-158.3" font-family="Times,serif" font-size="14.00">b</text>
</g>
<!-- a&#45;&gt;b -->
<g id="edge1" class="edge">
<title>a&#45;&gt;b</title>
<path fill="none" stroke="black" d="M103.27,-225.14C99.73,-214.79 95.1,-201.27 91.07,-189.49"/>
<polygon fill="black" stroke="black" points="94.27,-188.03 87.72,-179.7 87.65,-190.3 94.27,-188.03"/>
</g>
<!-- c -->
<g id="node3" class="node">
<title>c</title>
<ellipse fill="none" stroke="black" cx="27" cy="-90" rx="27" ry="18"/>
<text text-anchor="middle" x="27" y="-86.3" font-family="Times,serif" font-size="14.00">c</text>
</g>
<!-- b&#45;&gt;c -->
<g id="edge2" class="edge">
<title>b&#45;&gt;c</title>
<path fill="none" stroke="black" d="M70.07,-145.81C62.79,-136.55 53.34,-124.52 45.15,-114.09"/>
<polygon fill="black" stroke="black" points="47.84,-111.86 38.91,-106.16 42.34,-116.18 47.84,-111.86"/>
</g>
<!-- d -->
<g id="node4" class="node">
<title>d</title>
<ellipse fill="none" stroke="black" cx="137" cy="-90" rx="27" ry="18"/>
<text text-anchor="middle" x="137" y="-86.3" font-family="Times,serif" font-size="14.00">d</text>
</g>
<!-- b&#45;&gt;d -->
<g id="edge3" class="edge">
<title>b&#45;&gt;d</title>
<path fill="none" stroke="black" d="M93.93,-145.81C101.21,-136.55 110.66,-124.52 118.85,-114.09"/>
<polygon fill="black" stroke="black" points="121.66,-116.18 125.09,-106.16 116.16,-111.86 121.66,-116.18"/>
</g>
<!-- f -->
<g id="node5" class="node">
<title>f</title>
<ellipse fill="none" stroke="black" cx="54" cy="-18" rx="27" ry="18"/>
<text text-anchor="middle" x="54" y="-14.3" font-family="Times,serif" font-size="14.00">f</text>
</g>
<!-- c&#45;&gt;f -->
<g id="edge4" class="edge">
<title>c&#45;&gt;f</title>
<path fill="none" stroke="black" d="M33.4,-72.41C36.51,-64.34 40.33,-54.43 43.83,-45.35"/>
<polygon fill="black" stroke="black" points="47.13,-46.55 47.46,-35.96 40.6,-44.03 47.13,-46.55"/>
</g>
<!-- d&#45;&gt;a -->
<g id="edge6" class="edge">
<title>d&#45;&gt;a</title>
<path fill="none" stroke="black" d="M133.81,-108.18C128.98,-134.21 119.77,-183.85 114.03,-214.77"/>
<polygon fill="black" stroke="black" points="110.54,-214.39 112.16,-224.86 117.42,-215.66 110.54,-214.39"/>
</g>
<!-- f&#45;&gt;b -->
<g id="edge5" class="edge">
<title>f&#45;&gt;b</title>
<path fill="none" stroke="black" d="M57.39,-36.19C62.19,-60.53 71.01,-105.28 76.69,-134.06"/>
<polygon fill="black" stroke="black" points="73.25,-134.74 78.62,-143.87 80.12,-133.38 73.25,-134.74"/>
</g>
<!-- &#45; a
 &#160;&#160;&#160;e &#45; -->
<g id="node6" class="node">
<title>&#45; a
 &#160;&#160;&#160;e &#45;</title>
<ellipse fill="none" stroke="black" cx="187" cy="-242.87" rx="32.55" ry="26.74"/>
<text text-anchor="middle" x="187" y="-246.67" font-family="Times,serif" font-size="14.00">&#45; a</text>
<text text-anchor="middle" x="187" y="-231.67" font-family="Times,serif" font-size="14.00"> &#160;&#160;&#160;e &#45;</text>
</g>
<!-- e -->
<g id="node7" class="node">
<title>e</title>
<ellipse fill="none" stroke="black" cx="192" cy="-162" rx="27" ry="18"/>
<text text-anchor="middle" x="192" y="-158.3" font-family="Times,serif" font-size="14.00">e</text>
</g>
<!-- e&#45;&gt;d -->
<g id="edge7" class="edge">
<title>e&#45;&gt;d</title>
<path fill="none" stroke="black" d="M180.07,-145.81C172.79,-136.55 163.34,-124.52 155.15,-114.09"/>
<polygon fill="black" stroke="black" points="157.84,-111.86 148.91,-106.16 152.34,-116.18 157.84,-111.86"/>
</g>
</g>
</svg>
